<svg width="28" height="28" viewBox="0 0 28 28" fill="none" xmlns="http://www.w3.org/2000/svg">
<path d="M24.2005 7.02882C24.8672 6.64392 24.8672 5.68166 24.2005 5.29676L15.5259 0.288663C15.2165 0.110037 14.8353 0.110038 14.5259 0.288666L5.85156 5.29677C5.18489 5.68166 5.18489 6.64391 5.85155 7.02882L14.5259 12.0371C14.8353 12.2157 15.2165 12.2157 15.5259 12.0371L24.2005 7.02882Z" fill="#2B3350"/>
<path d="M15.8008 24.2682C15.8008 25.038 16.6341 25.5191 17.3008 25.1342L25.9781 20.1243C26.2875 19.9457 26.4781 19.6156 26.4781 19.2583V10.1642C26.4781 9.39436 25.6448 8.91323 24.9781 9.29812L16.3008 14.3078C15.9914 14.4865 15.8008 14.8166 15.8008 15.1739V24.2682Z" fill="#2B3350"/>
<path d="M5.07422 9.29814C4.40755 8.91324 3.57422 9.39437 3.57422 10.1642V19.2583C3.57422 19.6156 3.76481 19.9457 4.07421 20.1243L12.7514 25.1342C13.418 25.5191 14.2514 25.038 14.2514 24.2682V15.1738C14.2514 14.8166 14.0608 14.4865 13.7514 14.3078L5.07422 9.29814Z" fill="#2B3350"/>
</svg>
